<mxfile host="65bd71144e" modified="2020-10-20T05:50:55.924Z" agent="5.0 (Windows NT 10.0; Win64; x64) AppleWebKit/537.36 (KHTML, like Gecko) Code/1.50.1 Chrome/83.0.4103.122 Electron/9.2.1 Safari/537.36" version="13.6.5" etag="RhXvHX30f3ElwtiCAJsU">
    <diagram id="6Kb1h4NttGvmY5J7qdSe" name="Page-1">
        <mxGraphModel dx="1461" dy="480" grid="1" gridSize="10" guides="1" tooltips="1" connect="1" arrows="1" fold="1" page="1" pageScale="1" pageWidth="850" pageHeight="1100" math="0" shadow="0">
            <root>
                <mxCell id="0"/>
                <mxCell id="1" parent="0"/>
                <mxCell id="2" value="Motores" style="text;html=1;align=center;verticalAlign=middle;whiteSpace=wrap;rounded=0;fontStyle=1" vertex="1" parent="1">
                    <mxGeometry x="240.63" y="60" width="60" height="30" as="geometry"/>
                </mxCell>
                <mxCell id="3" value="" style="shape=curlyBracket;whiteSpace=wrap;html=1;rounded=1;rotation=90;" vertex="1" parent="1">
                    <mxGeometry x="248.29" y="-175.15" width="10" height="557.81" as="geometry"/>
                </mxCell>
                <mxCell id="4" value="Corriente continua" style="text;html=1;strokeColor=none;fillColor=none;align=center;verticalAlign=middle;whiteSpace=wrap;rounded=0;fontStyle=1" vertex="1" parent="1">
                    <mxGeometry x="-50" y="120" width="50" height="20" as="geometry"/>
                </mxCell>
                <mxCell id="5" style="edgeStyle=orthogonalEdgeStyle;rounded=0;orthogonalLoop=1;jettySize=auto;html=1;exitX=0.5;exitY=1;exitDx=0;exitDy=0;" edge="1" parent="1" source="4" target="4">
                    <mxGeometry relative="1" as="geometry"/>
                </mxCell>
                <mxCell id="6" value="Paso a paso&amp;nbsp;&lt;br&gt;" style="text;html=1;strokeColor=none;fillColor=none;align=center;verticalAlign=middle;whiteSpace=wrap;rounded=0;fontStyle=1" vertex="1" parent="1">
                    <mxGeometry x="140" y="120" width="50" height="20" as="geometry"/>
                </mxCell>
                <mxCell id="7" value="Sin escobillas" style="text;html=1;strokeColor=none;fillColor=none;align=center;verticalAlign=middle;whiteSpace=wrap;rounded=0;fontStyle=1" vertex="1" parent="1">
                    <mxGeometry x="310" y="110" width="50" height="40" as="geometry"/>
                </mxCell>
                <mxCell id="8" value="Servomotor" style="text;html=1;strokeColor=none;fillColor=none;align=center;verticalAlign=middle;whiteSpace=wrap;rounded=0;fontStyle=1" vertex="1" parent="1">
                    <mxGeometry x="460" y="102.5" width="50" height="40" as="geometry"/>
                </mxCell>
                <mxCell id="11" value="" style="shape=curlyBracket;whiteSpace=wrap;html=1;rounded=1;rotation=0;" vertex="1" parent="1">
                    <mxGeometry x="-60" y="150" width="20" height="120" as="geometry"/>
                </mxCell>
                <mxCell id="12" value="Tine 2 polos los cuales dependen de ccuanto voltaje le das para saber que tan rapido y en que polo lo hagas&amp;nbsp;" style="text;html=1;strokeColor=none;fillColor=none;align=left;verticalAlign=middle;whiteSpace=wrap;rounded=0;" vertex="1" parent="1">
                    <mxGeometry x="-40" y="165" width="90" height="90" as="geometry"/>
                </mxCell>
                <mxCell id="13" value="" style="shape=curlyBracket;whiteSpace=wrap;html=1;rounded=1;rotation=0;" vertex="1" parent="1">
                    <mxGeometry x="110" y="142.5" width="20" height="140" as="geometry"/>
                </mxCell>
                <mxCell id="14" value="Es un motor que recive varios volatjes de referencia y segun ellos va a dando pequeÃ±os pasos aunque estos pueden ser no muy notorios lo hacen mucgo mas persisos" style="text;html=1;strokeColor=none;fillColor=none;align=left;verticalAlign=middle;whiteSpace=wrap;rounded=0;" vertex="1" parent="1">
                    <mxGeometry x="125" y="155" width="120" height="115" as="geometry"/>
                </mxCell>
                <mxCell id="15" value="" style="shape=curlyBracket;whiteSpace=wrap;html=1;rounded=1;rotation=0;" vertex="1" parent="1">
                    <mxGeometry x="280" y="150" width="20" height="140" as="geometry"/>
                </mxCell>
                <mxCell id="16" value="Son trifasicos lo que quiere decir que ademas de recibir voltaje recive la velocidad a la que se quiere que gire y para ello se necesita un driver&amp;nbsp;" style="text;html=1;strokeColor=none;fillColor=none;align=left;verticalAlign=middle;whiteSpace=wrap;rounded=0;" vertex="1" parent="1">
                    <mxGeometry x="300.63" y="172.5" width="90" height="90" as="geometry"/>
                </mxCell>
                <mxCell id="17" value="" style="shape=curlyBracket;whiteSpace=wrap;html=1;rounded=1;rotation=0;" vertex="1" parent="1">
                    <mxGeometry x="425" y="140" width="25" height="130" as="geometry"/>
                </mxCell>
                <mxCell id="18" value="Es basicamente un motor de correinte directa con la diferencia de que este tiene un ecoder incluido el cual nos espesifica en donde esta y tambien se le dede de dar los grados en donde debe de estar" style="text;html=1;strokeColor=none;fillColor=none;align=left;verticalAlign=middle;whiteSpace=wrap;rounded=0;" vertex="1" parent="1">
                    <mxGeometry x="445" y="155" width="135" height="95" as="geometry"/>
                </mxCell>
            </root>
        </mxGraphModel>
    </diagram>
</mxfile>